<mxfile host="app.diagrams.net" modified="2022-10-26T15:24:58.770Z" agent="5.0 (Windows NT 10.0; Win64; x64) AppleWebKit/537.36 (KHTML, like Gecko) Chrome/106.0.0.0 Safari/537.36 Edg/106.0.1370.52" etag="annyjf3rSQkYFDLOAvE_" version="20.5.1" type="github">
  <diagram name="Page-1" id="64c3da0e-402f-94eb-ee01-a36477274f13">
    <mxGraphModel dx="2530" dy="965" grid="1" gridSize="10" guides="1" tooltips="1" connect="1" arrows="1" fold="1" page="0" pageScale="1" pageWidth="1169" pageHeight="826" background="none" math="0" shadow="0">
      <root>
        <mxCell id="0" />
        <mxCell id="1" parent="0" />
        <mxCell id="2" value="MAIN PROJECT" style="whiteSpace=wrap;rounded=1;shadow=1;fillColor=#10739E;strokeColor=none;fontColor=#FFFFFF;fontStyle=1;fontSize=24" parent="1" vertex="1">
          <mxGeometry x="210" y="50" width="340" height="60" as="geometry" />
        </mxCell>
        <mxCell id="3" value="SUB-PROJECT 1" style="whiteSpace=wrap;rounded=1;fillColor=#F2931E;strokeColor=none;shadow=1;fontColor=#FFFFFF;fontStyle=1;fontSize=14" parent="1" vertex="1">
          <mxGeometry x="-170" y="169.9999999999998" width="140" height="60" as="geometry" />
        </mxCell>
        <mxCell id="4" value="SUB-PROJECT 2" style="whiteSpace=wrap;rounded=1;fillColor=#F2931E;strokeColor=none;shadow=1;fontColor=#FFFFFF;fontStyle=1;fontSize=14" parent="1" vertex="1">
          <mxGeometry x="960" y="159.9999999999998" width="140" height="60" as="geometry" />
        </mxCell>
        <mxCell id="10" value="SUB-TASK 1" style="whiteSpace=wrap;rounded=1;fillColor=#12AAB5;strokeColor=none;shadow=1;fontColor=#FFFFFF;" parent="1" vertex="1">
          <mxGeometry x="-540" y="300.0000000000001" width="120" height="60" as="geometry" />
        </mxCell>
        <mxCell id="23" value="WORK&#xa;PACKAGE 1" style="whiteSpace=wrap;rounded=1;fillColor=#999999;strokeColor=none;shadow=1;fontColor=#FFFFFF;fontStyle=0" parent="1" vertex="1">
          <mxGeometry x="-540" y="400.0000000000001" width="120" height="60" as="geometry" />
        </mxCell>
        <mxCell id="24" value="WORK&#xa;PACKAGE 2" style="whiteSpace=wrap;rounded=1;fillColor=#999999;strokeColor=none;shadow=1;fontColor=#FFFFFF;fontStyle=0" parent="1" vertex="1">
          <mxGeometry x="-539.9999999999999" y="480.0000000000001" width="120" height="60" as="geometry" />
        </mxCell>
        <mxCell id="25" value="WORK&#xa;PACKAGE 3" style="whiteSpace=wrap;rounded=1;fillColor=#999999;strokeColor=none;shadow=1;fontColor=#FFFFFF;fontStyle=0" parent="1" vertex="1">
          <mxGeometry x="-540" y="560.0000000000001" width="120" height="60" as="geometry" />
        </mxCell>
        <mxCell id="26" value="WORK&#xa;PACKAGE 4" style="whiteSpace=wrap;rounded=1;fillColor=#999999;strokeColor=none;shadow=1;fontColor=#FFFFFF;fontStyle=0" parent="1" vertex="1">
          <mxGeometry x="-539.9999999999998" y="640.0000000000001" width="120" height="60" as="geometry" />
        </mxCell>
        <mxCell id="27" value="WORK&#xa;PACKAGE 5" style="whiteSpace=wrap;rounded=1;fillColor=#999999;strokeColor=none;shadow=1;fontColor=#FFFFFF;fontStyle=0" parent="1" vertex="1">
          <mxGeometry x="-539.9999999999997" y="720.0000000000001" width="120" height="60" as="geometry" />
        </mxCell>
        <mxCell id="43" value="SUB-TASK 1" style="whiteSpace=wrap;rounded=1;fillColor=#12AAB5;strokeColor=none;shadow=1;fontColor=#FFFFFF;" parent="1" vertex="1">
          <mxGeometry x="530" y="320" width="130" height="60" as="geometry" />
        </mxCell>
        <mxCell id="45" value="WORK&#xa;PACKAGE 1" style="whiteSpace=wrap;rounded=1;fillColor=#999999;strokeColor=none;shadow=1;fontColor=#FFFFFF;fontStyle=0" parent="1" vertex="1">
          <mxGeometry x="539.9999999999998" y="410.0000000000001" width="120" height="60" as="geometry" />
        </mxCell>
        <mxCell id="46" value="WORK&#xa;PACKAGE 2" style="whiteSpace=wrap;rounded=1;fillColor=#999999;strokeColor=none;shadow=1;fontColor=#FFFFFF;fontStyle=0" parent="1" vertex="1">
          <mxGeometry x="539.9999999999999" y="490.0000000000001" width="120" height="60" as="geometry" />
        </mxCell>
        <mxCell id="47" value="WORK&#xa;PACKAGE 3" style="whiteSpace=wrap;rounded=1;fillColor=#999999;strokeColor=none;shadow=1;fontColor=#FFFFFF;fontStyle=0" parent="1" vertex="1">
          <mxGeometry x="539.9999999999998" y="570.0000000000001" width="120" height="60" as="geometry" />
        </mxCell>
        <mxCell id="48" value="WORK&#xa;PACKAGE 4" style="whiteSpace=wrap;rounded=1;fillColor=#999999;strokeColor=none;shadow=1;fontColor=#FFFFFF;fontStyle=0" parent="1" vertex="1">
          <mxGeometry x="540" y="650.0000000000001" width="120" height="60" as="geometry" />
        </mxCell>
        <mxCell id="49" value="WORK&#xa;PACKAGE 5" style="whiteSpace=wrap;rounded=1;fillColor=#999999;strokeColor=none;shadow=1;fontColor=#FFFFFF;fontStyle=0" parent="1" vertex="1">
          <mxGeometry x="540.0000000000001" y="730.0000000000001" width="120" height="60" as="geometry" />
        </mxCell>
        <mxCell id="103" value="" style="edgeStyle=elbowEdgeStyle;elbow=vertical;rounded=0;fontColor=#000000;endArrow=none;endFill=0;strokeWidth=8;strokeColor=#23445D;" parent="1" source="3" target="10" edge="1">
          <mxGeometry width="100" height="100" relative="1" as="geometry">
            <mxPoint x="20" y="290" as="sourcePoint" />
            <mxPoint x="120" y="190" as="targetPoint" />
          </mxGeometry>
        </mxCell>
        <mxCell id="105" value="" style="edgeStyle=elbowEdgeStyle;elbow=horizontal;rounded=0;fontColor=#000000;endArrow=none;endFill=0;strokeWidth=8;strokeColor=#23445D;" parent="1" source="10" target="23" edge="1">
          <mxGeometry width="100" height="100" relative="1" as="geometry">
            <mxPoint x="-600" y="480" as="sourcePoint" />
            <mxPoint x="-500" y="380" as="targetPoint" />
            <Array as="points">
              <mxPoint x="-560" y="380" />
            </Array>
          </mxGeometry>
        </mxCell>
        <mxCell id="106" value="" style="edgeStyle=elbowEdgeStyle;elbow=horizontal;rounded=0;fontColor=#000000;endArrow=none;endFill=0;strokeWidth=8;strokeColor=#23445D;" parent="1" source="10" target="24" edge="1">
          <mxGeometry width="100" height="100" relative="1" as="geometry">
            <mxPoint x="-530" y="340" as="sourcePoint" />
            <mxPoint x="-530" y="440" as="targetPoint" />
            <Array as="points">
              <mxPoint x="-560" y="400" />
            </Array>
          </mxGeometry>
        </mxCell>
        <mxCell id="107" value="" style="edgeStyle=elbowEdgeStyle;elbow=horizontal;rounded=0;fontColor=#000000;endArrow=none;endFill=0;strokeWidth=8;strokeColor=#23445D;" parent="1" source="10" target="27" edge="1">
          <mxGeometry width="100" height="100" relative="1" as="geometry">
            <mxPoint x="-530" y="340" as="sourcePoint" />
            <mxPoint x="-530" y="440" as="targetPoint" />
            <Array as="points">
              <mxPoint x="-560" y="540" />
            </Array>
          </mxGeometry>
        </mxCell>
        <mxCell id="109" value="" style="edgeStyle=elbowEdgeStyle;elbow=horizontal;rounded=0;fontColor=#000000;endArrow=none;endFill=0;strokeWidth=8;strokeColor=#23445D;" parent="1" source="10" target="26" edge="1">
          <mxGeometry width="100" height="100" relative="1" as="geometry">
            <mxPoint x="-510" y="360" as="sourcePoint" />
            <mxPoint x="-510" y="460" as="targetPoint" />
            <Array as="points">
              <mxPoint x="-560" y="410" />
            </Array>
          </mxGeometry>
        </mxCell>
        <mxCell id="110" value="" style="edgeStyle=elbowEdgeStyle;elbow=horizontal;rounded=0;fontColor=#000000;endArrow=none;endFill=0;strokeWidth=8;strokeColor=#23445D;" parent="1" source="10" target="25" edge="1">
          <mxGeometry width="100" height="100" relative="1" as="geometry">
            <mxPoint x="-500" y="370" as="sourcePoint" />
            <mxPoint x="-500" y="470" as="targetPoint" />
            <Array as="points">
              <mxPoint x="-560" y="430" />
            </Array>
          </mxGeometry>
        </mxCell>
        <mxCell id="116" value="" style="edgeStyle=elbowEdgeStyle;elbow=vertical;rounded=0;fontColor=#000000;endArrow=none;endFill=0;strokeWidth=8;strokeColor=#23445D;" parent="1" source="4" target="43" edge="1">
          <mxGeometry width="100" height="100" relative="1" as="geometry">
            <mxPoint x="240" y="239.99999999999977" as="sourcePoint" />
            <mxPoint x="140" y="310" as="targetPoint" />
          </mxGeometry>
        </mxCell>
        <mxCell id="118" value="" style="edgeStyle=elbowEdgeStyle;elbow=horizontal;rounded=0;fontColor=#000000;endArrow=none;endFill=0;strokeWidth=8;strokeColor=#23445D;" parent="1" source="43" target="45" edge="1">
          <mxGeometry width="100" height="100" relative="1" as="geometry">
            <mxPoint x="520" y="340.00000000000045" as="sourcePoint" />
            <mxPoint x="529.9999999999995" y="440" as="targetPoint" />
            <Array as="points">
              <mxPoint x="520" y="390" />
            </Array>
          </mxGeometry>
        </mxCell>
        <mxCell id="119" value="" style="edgeStyle=elbowEdgeStyle;elbow=horizontal;rounded=0;fontColor=#000000;endArrow=none;endFill=0;strokeWidth=8;strokeColor=#23445D;" parent="1" source="43" target="46" edge="1">
          <mxGeometry width="100" height="100" relative="1" as="geometry">
            <mxPoint x="530" y="340" as="sourcePoint" />
            <mxPoint x="529.9999999999998" y="520" as="targetPoint" />
            <Array as="points">
              <mxPoint x="520" y="430" />
            </Array>
          </mxGeometry>
        </mxCell>
        <mxCell id="120" value="" style="edgeStyle=elbowEdgeStyle;elbow=horizontal;rounded=0;fontColor=#000000;endArrow=none;endFill=0;strokeWidth=8;strokeColor=#23445D;" parent="1" source="43" target="49" edge="1">
          <mxGeometry width="100" height="100" relative="1" as="geometry">
            <mxPoint x="530" y="340" as="sourcePoint" />
            <mxPoint x="530" y="760" as="targetPoint" />
            <Array as="points">
              <mxPoint x="520" y="560" />
            </Array>
          </mxGeometry>
        </mxCell>
        <mxCell id="121" value="" style="edgeStyle=elbowEdgeStyle;elbow=horizontal;rounded=0;fontColor=#000000;endArrow=none;endFill=0;strokeWidth=8;strokeColor=#23445D;" parent="1" source="43" target="48" edge="1">
          <mxGeometry width="100" height="100" relative="1" as="geometry">
            <mxPoint x="530" y="340" as="sourcePoint" />
            <mxPoint x="530" y="680" as="targetPoint" />
            <Array as="points">
              <mxPoint x="520" y="510" />
            </Array>
          </mxGeometry>
        </mxCell>
        <mxCell id="122" value="" style="edgeStyle=elbowEdgeStyle;elbow=horizontal;rounded=0;fontColor=#000000;endArrow=none;endFill=0;strokeWidth=8;strokeColor=#23445D;" parent="1" source="43" target="47" edge="1">
          <mxGeometry width="100" height="100" relative="1" as="geometry">
            <mxPoint x="530" y="340" as="sourcePoint" />
            <mxPoint x="529.9999999999998" y="600" as="targetPoint" />
            <Array as="points">
              <mxPoint x="520" y="480" />
            </Array>
          </mxGeometry>
        </mxCell>
        <mxCell id="123" value="" style="edgeStyle=elbowEdgeStyle;elbow=horizontal;rounded=0;fontColor=#000000;endArrow=none;endFill=0;strokeWidth=8;strokeColor=#23445D;" parent="1" target="50" edge="1">
          <mxGeometry width="100" height="100" relative="1" as="geometry">
            <mxPoint x="640" y="330" as="sourcePoint" />
            <mxPoint x="619.9999999999995" y="430" as="targetPoint" />
            <Array as="points">
              <mxPoint x="620" y="380" />
            </Array>
          </mxGeometry>
        </mxCell>
        <mxCell id="124" value="" style="edgeStyle=elbowEdgeStyle;elbow=horizontal;rounded=0;fontColor=#000000;endArrow=none;endFill=0;strokeWidth=8;strokeColor=#23445D;" parent="1" target="51" edge="1">
          <mxGeometry width="100" height="100" relative="1" as="geometry">
            <mxPoint x="640" y="330" as="sourcePoint" />
            <mxPoint x="619.9999999999998" y="510" as="targetPoint" />
            <Array as="points">
              <mxPoint x="620" y="420" />
            </Array>
          </mxGeometry>
        </mxCell>
        <mxCell id="125" value="" style="edgeStyle=elbowEdgeStyle;elbow=horizontal;rounded=0;fontColor=#000000;endArrow=none;endFill=0;strokeWidth=8;strokeColor=#23445D;" parent="1" target="54" edge="1">
          <mxGeometry width="100" height="100" relative="1" as="geometry">
            <mxPoint x="640" y="330" as="sourcePoint" />
            <mxPoint x="620" y="750" as="targetPoint" />
            <Array as="points">
              <mxPoint x="620" y="540" />
            </Array>
          </mxGeometry>
        </mxCell>
        <mxCell id="126" value="" style="edgeStyle=elbowEdgeStyle;elbow=horizontal;rounded=0;fontColor=#000000;endArrow=none;endFill=0;strokeWidth=8;strokeColor=#23445D;" parent="1" target="53" edge="1">
          <mxGeometry width="100" height="100" relative="1" as="geometry">
            <mxPoint x="640" y="330" as="sourcePoint" />
            <mxPoint x="620" y="670" as="targetPoint" />
            <Array as="points">
              <mxPoint x="620" y="500" />
            </Array>
          </mxGeometry>
        </mxCell>
        <mxCell id="127" value="" style="edgeStyle=elbowEdgeStyle;elbow=horizontal;rounded=0;fontColor=#000000;endArrow=none;endFill=0;strokeWidth=8;strokeColor=#23445D;" parent="1" target="52" edge="1">
          <mxGeometry width="100" height="100" relative="1" as="geometry">
            <mxPoint x="640" y="330" as="sourcePoint" />
            <mxPoint x="619.9999999999998" y="590" as="targetPoint" />
            <Array as="points">
              <mxPoint x="620" y="470" />
            </Array>
          </mxGeometry>
        </mxCell>
        <mxCell id="145" value="" style="edgeStyle=elbowEdgeStyle;elbow=horizontal;rounded=0;fontColor=#000000;endArrow=none;endFill=0;strokeWidth=8;strokeColor=#23445D;" parent="1" target="135" edge="1">
          <mxGeometry width="100" height="100" relative="1" as="geometry">
            <mxPoint x="810" y="330" as="sourcePoint" />
            <mxPoint x="799.9999999999995" y="430" as="targetPoint" />
            <Array as="points">
              <mxPoint x="790" y="380" />
            </Array>
          </mxGeometry>
        </mxCell>
        <mxCell id="146" value="" style="edgeStyle=elbowEdgeStyle;elbow=horizontal;rounded=0;fontColor=#000000;endArrow=none;endFill=0;strokeWidth=8;strokeColor=#23445D;" parent="1" target="136" edge="1">
          <mxGeometry width="100" height="100" relative="1" as="geometry">
            <mxPoint x="810" y="330" as="sourcePoint" />
            <mxPoint x="799.9999999999998" y="510" as="targetPoint" />
            <Array as="points">
              <mxPoint x="790" y="420" />
            </Array>
          </mxGeometry>
        </mxCell>
        <mxCell id="147" value="" style="edgeStyle=elbowEdgeStyle;elbow=horizontal;rounded=0;fontColor=#000000;endArrow=none;endFill=0;strokeWidth=8;strokeColor=#23445D;" parent="1" target="139" edge="1">
          <mxGeometry width="100" height="100" relative="1" as="geometry">
            <mxPoint x="810" y="330" as="sourcePoint" />
            <mxPoint x="800" y="750" as="targetPoint" />
            <Array as="points">
              <mxPoint x="790" y="550" />
            </Array>
          </mxGeometry>
        </mxCell>
        <mxCell id="148" value="" style="edgeStyle=elbowEdgeStyle;elbow=horizontal;rounded=0;fontColor=#000000;endArrow=none;endFill=0;strokeWidth=8;strokeColor=#23445D;" parent="1" target="138" edge="1">
          <mxGeometry width="100" height="100" relative="1" as="geometry">
            <mxPoint x="810" y="330" as="sourcePoint" />
            <mxPoint x="800" y="670" as="targetPoint" />
            <Array as="points">
              <mxPoint x="790" y="500" />
            </Array>
          </mxGeometry>
        </mxCell>
        <mxCell id="149" value="" style="edgeStyle=elbowEdgeStyle;elbow=horizontal;rounded=0;fontColor=#000000;endArrow=none;endFill=0;strokeWidth=8;strokeColor=#23445D;" parent="1" target="137" edge="1">
          <mxGeometry width="100" height="100" relative="1" as="geometry">
            <mxPoint x="810" y="330" as="sourcePoint" />
            <mxPoint x="799.9999999999998" y="590" as="targetPoint" />
            <Array as="points">
              <mxPoint x="790" y="470" />
            </Array>
          </mxGeometry>
        </mxCell>
        <mxCell id="229" value="" style="edgeStyle=elbowEdgeStyle;elbow=vertical;rounded=0;fontColor=#000000;endArrow=none;endFill=0;strokeWidth=8;strokeColor=#23445D;" parent="1" source="2" target="3" edge="1">
          <mxGeometry width="100" height="100" relative="1" as="geometry">
            <mxPoint x="540" y="140" as="sourcePoint" />
            <mxPoint x="640" y="40" as="targetPoint" />
          </mxGeometry>
        </mxCell>
        <mxCell id="230" value="" style="edgeStyle=elbowEdgeStyle;elbow=vertical;rounded=0;fontColor=#000000;endArrow=none;endFill=0;strokeWidth=8;strokeColor=#23445D;" parent="1" source="2" target="4" edge="1">
          <mxGeometry width="100" height="100" relative="1" as="geometry">
            <mxPoint x="550" y="150" as="sourcePoint" />
            <mxPoint x="650" y="50" as="targetPoint" />
            <Array as="points">
              <mxPoint x="710" y="140" />
            </Array>
          </mxGeometry>
        </mxCell>
        <mxCell id="Pvc_LrXksF8-Iq35pGag-325" value="SUB-TASK 1" style="whiteSpace=wrap;rounded=1;fillColor=#12AAB5;strokeColor=none;shadow=1;fontColor=#FFFFFF;" vertex="1" parent="1">
          <mxGeometry x="-350" y="300" width="120" height="60" as="geometry" />
        </mxCell>
        <mxCell id="Pvc_LrXksF8-Iq35pGag-326" value="WORK&#xa;PACKAGE 1" style="whiteSpace=wrap;rounded=1;fillColor=#999999;strokeColor=none;shadow=1;fontColor=#FFFFFF;fontStyle=0" vertex="1" parent="1">
          <mxGeometry x="-350" y="400.0000000000001" width="120" height="60" as="geometry" />
        </mxCell>
        <mxCell id="Pvc_LrXksF8-Iq35pGag-327" value="WORK&#xa;PACKAGE 2" style="whiteSpace=wrap;rounded=1;fillColor=#999999;strokeColor=none;shadow=1;fontColor=#FFFFFF;fontStyle=0" vertex="1" parent="1">
          <mxGeometry x="-349.9999999999999" y="480.0000000000001" width="120" height="60" as="geometry" />
        </mxCell>
        <mxCell id="Pvc_LrXksF8-Iq35pGag-328" value="WORK&#xa;PACKAGE 3" style="whiteSpace=wrap;rounded=1;fillColor=#999999;strokeColor=none;shadow=1;fontColor=#FFFFFF;fontStyle=0" vertex="1" parent="1">
          <mxGeometry x="-350" y="560.0000000000001" width="120" height="60" as="geometry" />
        </mxCell>
        <mxCell id="Pvc_LrXksF8-Iq35pGag-329" value="WORK&#xa;PACKAGE 4" style="whiteSpace=wrap;rounded=1;fillColor=#999999;strokeColor=none;shadow=1;fontColor=#FFFFFF;fontStyle=0" vertex="1" parent="1">
          <mxGeometry x="-349.9999999999998" y="640.0000000000001" width="120" height="60" as="geometry" />
        </mxCell>
        <mxCell id="Pvc_LrXksF8-Iq35pGag-330" value="WORK&#xa;PACKAGE 5" style="whiteSpace=wrap;rounded=1;fillColor=#999999;strokeColor=none;shadow=1;fontColor=#FFFFFF;fontStyle=0" vertex="1" parent="1">
          <mxGeometry x="-349.99999999999966" y="720.0000000000001" width="120" height="60" as="geometry" />
        </mxCell>
        <mxCell id="Pvc_LrXksF8-Iq35pGag-331" value="" style="edgeStyle=elbowEdgeStyle;elbow=horizontal;rounded=0;fontColor=#000000;endArrow=none;endFill=0;strokeWidth=8;strokeColor=#23445D;" edge="1" parent="1" source="Pvc_LrXksF8-Iq35pGag-325" target="Pvc_LrXksF8-Iq35pGag-326">
          <mxGeometry width="100" height="100" relative="1" as="geometry">
            <mxPoint x="-410" y="480" as="sourcePoint" />
            <mxPoint x="-310" y="380" as="targetPoint" />
            <Array as="points">
              <mxPoint x="-370" y="380" />
            </Array>
          </mxGeometry>
        </mxCell>
        <mxCell id="Pvc_LrXksF8-Iq35pGag-332" value="" style="edgeStyle=elbowEdgeStyle;elbow=horizontal;rounded=0;fontColor=#000000;endArrow=none;endFill=0;strokeWidth=8;strokeColor=#23445D;" edge="1" parent="1" source="Pvc_LrXksF8-Iq35pGag-325" target="Pvc_LrXksF8-Iq35pGag-327">
          <mxGeometry width="100" height="100" relative="1" as="geometry">
            <mxPoint x="-340" y="340" as="sourcePoint" />
            <mxPoint x="-340" y="440" as="targetPoint" />
            <Array as="points">
              <mxPoint x="-370" y="400" />
            </Array>
          </mxGeometry>
        </mxCell>
        <mxCell id="Pvc_LrXksF8-Iq35pGag-333" value="" style="edgeStyle=elbowEdgeStyle;elbow=horizontal;rounded=0;fontColor=#000000;endArrow=none;endFill=0;strokeWidth=8;strokeColor=#23445D;" edge="1" parent="1" source="Pvc_LrXksF8-Iq35pGag-325" target="Pvc_LrXksF8-Iq35pGag-330">
          <mxGeometry width="100" height="100" relative="1" as="geometry">
            <mxPoint x="-340" y="340" as="sourcePoint" />
            <mxPoint x="-340" y="440" as="targetPoint" />
            <Array as="points">
              <mxPoint x="-370" y="540" />
            </Array>
          </mxGeometry>
        </mxCell>
        <mxCell id="Pvc_LrXksF8-Iq35pGag-334" value="" style="edgeStyle=elbowEdgeStyle;elbow=horizontal;rounded=0;fontColor=#000000;endArrow=none;endFill=0;strokeWidth=8;strokeColor=#23445D;" edge="1" parent="1" source="Pvc_LrXksF8-Iq35pGag-325" target="Pvc_LrXksF8-Iq35pGag-329">
          <mxGeometry width="100" height="100" relative="1" as="geometry">
            <mxPoint x="-320" y="360" as="sourcePoint" />
            <mxPoint x="-320" y="460" as="targetPoint" />
            <Array as="points">
              <mxPoint x="-370" y="410" />
            </Array>
          </mxGeometry>
        </mxCell>
        <mxCell id="Pvc_LrXksF8-Iq35pGag-335" value="" style="edgeStyle=elbowEdgeStyle;elbow=horizontal;rounded=0;fontColor=#000000;endArrow=none;endFill=0;strokeWidth=8;strokeColor=#23445D;" edge="1" parent="1" source="Pvc_LrXksF8-Iq35pGag-325" target="Pvc_LrXksF8-Iq35pGag-328">
          <mxGeometry width="100" height="100" relative="1" as="geometry">
            <mxPoint x="-310" y="370" as="sourcePoint" />
            <mxPoint x="-310" y="470" as="targetPoint" />
            <Array as="points">
              <mxPoint x="-370" y="430" />
            </Array>
          </mxGeometry>
        </mxCell>
        <mxCell id="Pvc_LrXksF8-Iq35pGag-336" value="SUB-TASK 1" style="whiteSpace=wrap;rounded=1;fillColor=#12AAB5;strokeColor=none;shadow=1;fontColor=#FFFFFF;" vertex="1" parent="1">
          <mxGeometry x="-160" y="300.0000000000001" width="120" height="60" as="geometry" />
        </mxCell>
        <mxCell id="Pvc_LrXksF8-Iq35pGag-337" value="WORK&#xa;PACKAGE 1" style="whiteSpace=wrap;rounded=1;fillColor=#999999;strokeColor=none;shadow=1;fontColor=#FFFFFF;fontStyle=0" vertex="1" parent="1">
          <mxGeometry x="-160" y="400.0000000000001" width="120" height="60" as="geometry" />
        </mxCell>
        <mxCell id="Pvc_LrXksF8-Iq35pGag-338" value="WORK&#xa;PACKAGE 2" style="whiteSpace=wrap;rounded=1;fillColor=#999999;strokeColor=none;shadow=1;fontColor=#FFFFFF;fontStyle=0" vertex="1" parent="1">
          <mxGeometry x="-159.9999999999999" y="480.0000000000001" width="120" height="60" as="geometry" />
        </mxCell>
        <mxCell id="Pvc_LrXksF8-Iq35pGag-339" value="WORK&#xa;PACKAGE 3" style="whiteSpace=wrap;rounded=1;fillColor=#999999;strokeColor=none;shadow=1;fontColor=#FFFFFF;fontStyle=0" vertex="1" parent="1">
          <mxGeometry x="-160" y="560.0000000000001" width="120" height="60" as="geometry" />
        </mxCell>
        <mxCell id="Pvc_LrXksF8-Iq35pGag-340" value="WORK&#xa;PACKAGE 4" style="whiteSpace=wrap;rounded=1;fillColor=#999999;strokeColor=none;shadow=1;fontColor=#FFFFFF;fontStyle=0" vertex="1" parent="1">
          <mxGeometry x="-159.99999999999977" y="640.0000000000001" width="120" height="60" as="geometry" />
        </mxCell>
        <mxCell id="Pvc_LrXksF8-Iq35pGag-341" value="WORK&#xa;PACKAGE 5" style="whiteSpace=wrap;rounded=1;fillColor=#999999;strokeColor=none;shadow=1;fontColor=#FFFFFF;fontStyle=0" vertex="1" parent="1">
          <mxGeometry x="-159.99999999999966" y="720.0000000000001" width="120" height="60" as="geometry" />
        </mxCell>
        <mxCell id="Pvc_LrXksF8-Iq35pGag-342" value="" style="edgeStyle=elbowEdgeStyle;elbow=horizontal;rounded=0;fontColor=#000000;endArrow=none;endFill=0;strokeWidth=8;strokeColor=#23445D;" edge="1" parent="1" source="Pvc_LrXksF8-Iq35pGag-336" target="Pvc_LrXksF8-Iq35pGag-337">
          <mxGeometry width="100" height="100" relative="1" as="geometry">
            <mxPoint x="-220" y="480" as="sourcePoint" />
            <mxPoint x="-120" y="380" as="targetPoint" />
            <Array as="points">
              <mxPoint x="-180" y="380" />
            </Array>
          </mxGeometry>
        </mxCell>
        <mxCell id="Pvc_LrXksF8-Iq35pGag-343" value="" style="edgeStyle=elbowEdgeStyle;elbow=horizontal;rounded=0;fontColor=#000000;endArrow=none;endFill=0;strokeWidth=8;strokeColor=#23445D;" edge="1" parent="1" source="Pvc_LrXksF8-Iq35pGag-336" target="Pvc_LrXksF8-Iq35pGag-338">
          <mxGeometry width="100" height="100" relative="1" as="geometry">
            <mxPoint x="-150" y="340" as="sourcePoint" />
            <mxPoint x="-150" y="440" as="targetPoint" />
            <Array as="points">
              <mxPoint x="-180" y="400" />
            </Array>
          </mxGeometry>
        </mxCell>
        <mxCell id="Pvc_LrXksF8-Iq35pGag-344" value="" style="edgeStyle=elbowEdgeStyle;elbow=horizontal;rounded=0;fontColor=#000000;endArrow=none;endFill=0;strokeWidth=8;strokeColor=#23445D;" edge="1" parent="1" source="Pvc_LrXksF8-Iq35pGag-336" target="Pvc_LrXksF8-Iq35pGag-341">
          <mxGeometry width="100" height="100" relative="1" as="geometry">
            <mxPoint x="-150" y="340" as="sourcePoint" />
            <mxPoint x="-150" y="440" as="targetPoint" />
            <Array as="points">
              <mxPoint x="-180" y="540" />
            </Array>
          </mxGeometry>
        </mxCell>
        <mxCell id="Pvc_LrXksF8-Iq35pGag-345" value="" style="edgeStyle=elbowEdgeStyle;elbow=horizontal;rounded=0;fontColor=#000000;endArrow=none;endFill=0;strokeWidth=8;strokeColor=#23445D;" edge="1" parent="1" source="Pvc_LrXksF8-Iq35pGag-336" target="Pvc_LrXksF8-Iq35pGag-340">
          <mxGeometry width="100" height="100" relative="1" as="geometry">
            <mxPoint x="-130" y="360" as="sourcePoint" />
            <mxPoint x="-130" y="460" as="targetPoint" />
            <Array as="points">
              <mxPoint x="-180" y="410" />
            </Array>
          </mxGeometry>
        </mxCell>
        <mxCell id="Pvc_LrXksF8-Iq35pGag-346" value="" style="edgeStyle=elbowEdgeStyle;elbow=horizontal;rounded=0;fontColor=#000000;endArrow=none;endFill=0;strokeWidth=8;strokeColor=#23445D;" edge="1" parent="1" source="Pvc_LrXksF8-Iq35pGag-336" target="Pvc_LrXksF8-Iq35pGag-339">
          <mxGeometry width="100" height="100" relative="1" as="geometry">
            <mxPoint x="-120" y="370" as="sourcePoint" />
            <mxPoint x="-120" y="470" as="targetPoint" />
            <Array as="points">
              <mxPoint x="-180" y="430" />
            </Array>
          </mxGeometry>
        </mxCell>
        <mxCell id="Pvc_LrXksF8-Iq35pGag-347" value="SUB-TASK 1" style="whiteSpace=wrap;rounded=1;fillColor=#12AAB5;strokeColor=none;shadow=1;fontColor=#FFFFFF;" vertex="1" parent="1">
          <mxGeometry x="30" y="300.0000000000001" width="120" height="60" as="geometry" />
        </mxCell>
        <mxCell id="Pvc_LrXksF8-Iq35pGag-348" value="WORK&#xa;PACKAGE 1" style="whiteSpace=wrap;rounded=1;fillColor=#999999;strokeColor=none;shadow=1;fontColor=#FFFFFF;fontStyle=0" vertex="1" parent="1">
          <mxGeometry x="30" y="400.0000000000001" width="120" height="60" as="geometry" />
        </mxCell>
        <mxCell id="Pvc_LrXksF8-Iq35pGag-349" value="WORK&#xa;PACKAGE 2" style="whiteSpace=wrap;rounded=1;fillColor=#999999;strokeColor=none;shadow=1;fontColor=#FFFFFF;fontStyle=0" vertex="1" parent="1">
          <mxGeometry x="30.000000000000114" y="480.0000000000001" width="120" height="60" as="geometry" />
        </mxCell>
        <mxCell id="Pvc_LrXksF8-Iq35pGag-350" value="WORK&#xa;PACKAGE 3" style="whiteSpace=wrap;rounded=1;fillColor=#999999;strokeColor=none;shadow=1;fontColor=#FFFFFF;fontStyle=0" vertex="1" parent="1">
          <mxGeometry x="30" y="560.0000000000001" width="120" height="60" as="geometry" />
        </mxCell>
        <mxCell id="Pvc_LrXksF8-Iq35pGag-351" value="WORK&#xa;PACKAGE 4" style="whiteSpace=wrap;rounded=1;fillColor=#999999;strokeColor=none;shadow=1;fontColor=#FFFFFF;fontStyle=0" vertex="1" parent="1">
          <mxGeometry x="30.000000000000227" y="640.0000000000001" width="120" height="60" as="geometry" />
        </mxCell>
        <mxCell id="Pvc_LrXksF8-Iq35pGag-352" value="WORK&#xa;PACKAGE 5" style="whiteSpace=wrap;rounded=1;fillColor=#999999;strokeColor=none;shadow=1;fontColor=#FFFFFF;fontStyle=0" vertex="1" parent="1">
          <mxGeometry x="30.00000000000034" y="720.0000000000001" width="120" height="60" as="geometry" />
        </mxCell>
        <mxCell id="Pvc_LrXksF8-Iq35pGag-353" value="" style="edgeStyle=elbowEdgeStyle;elbow=horizontal;rounded=0;fontColor=#000000;endArrow=none;endFill=0;strokeWidth=8;strokeColor=#23445D;" edge="1" parent="1" source="Pvc_LrXksF8-Iq35pGag-347" target="Pvc_LrXksF8-Iq35pGag-348">
          <mxGeometry width="100" height="100" relative="1" as="geometry">
            <mxPoint x="-30" y="480" as="sourcePoint" />
            <mxPoint x="70" y="380" as="targetPoint" />
            <Array as="points">
              <mxPoint x="10" y="380" />
            </Array>
          </mxGeometry>
        </mxCell>
        <mxCell id="Pvc_LrXksF8-Iq35pGag-354" value="" style="edgeStyle=elbowEdgeStyle;elbow=horizontal;rounded=0;fontColor=#000000;endArrow=none;endFill=0;strokeWidth=8;strokeColor=#23445D;" edge="1" parent="1" source="Pvc_LrXksF8-Iq35pGag-347" target="Pvc_LrXksF8-Iq35pGag-349">
          <mxGeometry width="100" height="100" relative="1" as="geometry">
            <mxPoint x="40" y="340" as="sourcePoint" />
            <mxPoint x="40" y="440" as="targetPoint" />
            <Array as="points">
              <mxPoint x="10" y="400" />
            </Array>
          </mxGeometry>
        </mxCell>
        <mxCell id="Pvc_LrXksF8-Iq35pGag-355" value="" style="edgeStyle=elbowEdgeStyle;elbow=horizontal;rounded=0;fontColor=#000000;endArrow=none;endFill=0;strokeWidth=8;strokeColor=#23445D;" edge="1" parent="1" source="Pvc_LrXksF8-Iq35pGag-347" target="Pvc_LrXksF8-Iq35pGag-352">
          <mxGeometry width="100" height="100" relative="1" as="geometry">
            <mxPoint x="40" y="340" as="sourcePoint" />
            <mxPoint x="40" y="440" as="targetPoint" />
            <Array as="points">
              <mxPoint x="10" y="540" />
            </Array>
          </mxGeometry>
        </mxCell>
        <mxCell id="Pvc_LrXksF8-Iq35pGag-356" value="" style="edgeStyle=elbowEdgeStyle;elbow=horizontal;rounded=0;fontColor=#000000;endArrow=none;endFill=0;strokeWidth=8;strokeColor=#23445D;" edge="1" parent="1" source="Pvc_LrXksF8-Iq35pGag-347" target="Pvc_LrXksF8-Iq35pGag-351">
          <mxGeometry width="100" height="100" relative="1" as="geometry">
            <mxPoint x="60" y="360" as="sourcePoint" />
            <mxPoint x="60" y="460" as="targetPoint" />
            <Array as="points">
              <mxPoint x="10" y="410" />
            </Array>
          </mxGeometry>
        </mxCell>
        <mxCell id="Pvc_LrXksF8-Iq35pGag-357" value="" style="edgeStyle=elbowEdgeStyle;elbow=horizontal;rounded=0;fontColor=#000000;endArrow=none;endFill=0;strokeWidth=8;strokeColor=#23445D;" edge="1" parent="1" source="Pvc_LrXksF8-Iq35pGag-347" target="Pvc_LrXksF8-Iq35pGag-350">
          <mxGeometry width="100" height="100" relative="1" as="geometry">
            <mxPoint x="70" y="370" as="sourcePoint" />
            <mxPoint x="70" y="470" as="targetPoint" />
            <Array as="points">
              <mxPoint x="10" y="430" />
            </Array>
          </mxGeometry>
        </mxCell>
        <mxCell id="Pvc_LrXksF8-Iq35pGag-358" value="SUB-TASK 1" style="whiteSpace=wrap;rounded=1;fillColor=#12AAB5;strokeColor=none;shadow=1;fontColor=#FFFFFF;" vertex="1" parent="1">
          <mxGeometry x="220" y="300.0000000000001" width="120" height="60" as="geometry" />
        </mxCell>
        <mxCell id="Pvc_LrXksF8-Iq35pGag-359" value="WORK&#xa;PACKAGE 1" style="whiteSpace=wrap;rounded=1;fillColor=#999999;strokeColor=none;shadow=1;fontColor=#FFFFFF;fontStyle=0" vertex="1" parent="1">
          <mxGeometry x="220" y="400.0000000000001" width="120" height="60" as="geometry" />
        </mxCell>
        <mxCell id="Pvc_LrXksF8-Iq35pGag-360" value="WORK&#xa;PACKAGE 2" style="whiteSpace=wrap;rounded=1;fillColor=#999999;strokeColor=none;shadow=1;fontColor=#FFFFFF;fontStyle=0" vertex="1" parent="1">
          <mxGeometry x="220.0000000000001" y="480.0000000000001" width="120" height="60" as="geometry" />
        </mxCell>
        <mxCell id="Pvc_LrXksF8-Iq35pGag-361" value="WORK&#xa;PACKAGE 3" style="whiteSpace=wrap;rounded=1;fillColor=#999999;strokeColor=none;shadow=1;fontColor=#FFFFFF;fontStyle=0" vertex="1" parent="1">
          <mxGeometry x="220" y="560.0000000000001" width="120" height="60" as="geometry" />
        </mxCell>
        <mxCell id="Pvc_LrXksF8-Iq35pGag-362" value="WORK&#xa;PACKAGE 4" style="whiteSpace=wrap;rounded=1;fillColor=#999999;strokeColor=none;shadow=1;fontColor=#FFFFFF;fontStyle=0" vertex="1" parent="1">
          <mxGeometry x="220.00000000000023" y="640.0000000000001" width="120" height="60" as="geometry" />
        </mxCell>
        <mxCell id="Pvc_LrXksF8-Iq35pGag-363" value="WORK&#xa;PACKAGE 5" style="whiteSpace=wrap;rounded=1;fillColor=#999999;strokeColor=none;shadow=1;fontColor=#FFFFFF;fontStyle=0" vertex="1" parent="1">
          <mxGeometry x="220.00000000000034" y="720.0000000000001" width="120" height="60" as="geometry" />
        </mxCell>
        <mxCell id="Pvc_LrXksF8-Iq35pGag-364" value="" style="edgeStyle=elbowEdgeStyle;elbow=horizontal;rounded=0;fontColor=#000000;endArrow=none;endFill=0;strokeWidth=8;strokeColor=#23445D;" edge="1" parent="1" source="Pvc_LrXksF8-Iq35pGag-358" target="Pvc_LrXksF8-Iq35pGag-359">
          <mxGeometry width="100" height="100" relative="1" as="geometry">
            <mxPoint x="160" y="480" as="sourcePoint" />
            <mxPoint x="260" y="380" as="targetPoint" />
            <Array as="points">
              <mxPoint x="200" y="380" />
            </Array>
          </mxGeometry>
        </mxCell>
        <mxCell id="Pvc_LrXksF8-Iq35pGag-365" value="" style="edgeStyle=elbowEdgeStyle;elbow=horizontal;rounded=0;fontColor=#000000;endArrow=none;endFill=0;strokeWidth=8;strokeColor=#23445D;" edge="1" parent="1" source="Pvc_LrXksF8-Iq35pGag-358" target="Pvc_LrXksF8-Iq35pGag-360">
          <mxGeometry width="100" height="100" relative="1" as="geometry">
            <mxPoint x="230" y="340" as="sourcePoint" />
            <mxPoint x="230" y="440" as="targetPoint" />
            <Array as="points">
              <mxPoint x="200" y="400" />
            </Array>
          </mxGeometry>
        </mxCell>
        <mxCell id="Pvc_LrXksF8-Iq35pGag-366" value="" style="edgeStyle=elbowEdgeStyle;elbow=horizontal;rounded=0;fontColor=#000000;endArrow=none;endFill=0;strokeWidth=8;strokeColor=#23445D;" edge="1" parent="1" source="Pvc_LrXksF8-Iq35pGag-358" target="Pvc_LrXksF8-Iq35pGag-363">
          <mxGeometry width="100" height="100" relative="1" as="geometry">
            <mxPoint x="230" y="340" as="sourcePoint" />
            <mxPoint x="230" y="440" as="targetPoint" />
            <Array as="points">
              <mxPoint x="200" y="540" />
            </Array>
          </mxGeometry>
        </mxCell>
        <mxCell id="Pvc_LrXksF8-Iq35pGag-367" value="" style="edgeStyle=elbowEdgeStyle;elbow=horizontal;rounded=0;fontColor=#000000;endArrow=none;endFill=0;strokeWidth=8;strokeColor=#23445D;" edge="1" parent="1" source="Pvc_LrXksF8-Iq35pGag-358" target="Pvc_LrXksF8-Iq35pGag-362">
          <mxGeometry width="100" height="100" relative="1" as="geometry">
            <mxPoint x="250" y="360" as="sourcePoint" />
            <mxPoint x="250" y="460" as="targetPoint" />
            <Array as="points">
              <mxPoint x="200" y="410" />
            </Array>
          </mxGeometry>
        </mxCell>
        <mxCell id="Pvc_LrXksF8-Iq35pGag-368" value="" style="edgeStyle=elbowEdgeStyle;elbow=horizontal;rounded=0;fontColor=#000000;endArrow=none;endFill=0;strokeWidth=8;strokeColor=#23445D;" edge="1" parent="1" source="Pvc_LrXksF8-Iq35pGag-358" target="Pvc_LrXksF8-Iq35pGag-361">
          <mxGeometry width="100" height="100" relative="1" as="geometry">
            <mxPoint x="260" y="370" as="sourcePoint" />
            <mxPoint x="260" y="470" as="targetPoint" />
            <Array as="points">
              <mxPoint x="200" y="430" />
            </Array>
          </mxGeometry>
        </mxCell>
        <mxCell id="Pvc_LrXksF8-Iq35pGag-369" value="SUB-TASK 1" style="whiteSpace=wrap;rounded=1;fillColor=#12AAB5;strokeColor=none;shadow=1;fontColor=#FFFFFF;" vertex="1" parent="1">
          <mxGeometry x="750" y="320.0000000000001" width="120" height="60" as="geometry" />
        </mxCell>
        <mxCell id="Pvc_LrXksF8-Iq35pGag-370" value="WORK&#xa;PACKAGE 1" style="whiteSpace=wrap;rounded=1;fillColor=#999999;strokeColor=none;shadow=1;fontColor=#FFFFFF;fontStyle=0" vertex="1" parent="1">
          <mxGeometry x="750" y="420.0000000000001" width="120" height="60" as="geometry" />
        </mxCell>
        <mxCell id="Pvc_LrXksF8-Iq35pGag-371" value="WORK&#xa;PACKAGE 2" style="whiteSpace=wrap;rounded=1;fillColor=#999999;strokeColor=none;shadow=1;fontColor=#FFFFFF;fontStyle=0" vertex="1" parent="1">
          <mxGeometry x="750.0000000000001" y="500.0000000000001" width="120" height="60" as="geometry" />
        </mxCell>
        <mxCell id="Pvc_LrXksF8-Iq35pGag-372" value="WORK&#xa;PACKAGE 3" style="whiteSpace=wrap;rounded=1;fillColor=#999999;strokeColor=none;shadow=1;fontColor=#FFFFFF;fontStyle=0" vertex="1" parent="1">
          <mxGeometry x="750" y="580.0000000000001" width="120" height="60" as="geometry" />
        </mxCell>
        <mxCell id="Pvc_LrXksF8-Iq35pGag-373" value="WORK&#xa;PACKAGE 4" style="whiteSpace=wrap;rounded=1;fillColor=#999999;strokeColor=none;shadow=1;fontColor=#FFFFFF;fontStyle=0" vertex="1" parent="1">
          <mxGeometry x="750.0000000000002" y="660.0000000000001" width="120" height="60" as="geometry" />
        </mxCell>
        <mxCell id="Pvc_LrXksF8-Iq35pGag-374" value="WORK&#xa;PACKAGE 5" style="whiteSpace=wrap;rounded=1;fillColor=#999999;strokeColor=none;shadow=1;fontColor=#FFFFFF;fontStyle=0" vertex="1" parent="1">
          <mxGeometry x="750.0000000000003" y="740.0000000000001" width="120" height="60" as="geometry" />
        </mxCell>
        <mxCell id="Pvc_LrXksF8-Iq35pGag-375" value="" style="edgeStyle=elbowEdgeStyle;elbow=horizontal;rounded=0;fontColor=#000000;endArrow=none;endFill=0;strokeWidth=8;strokeColor=#23445D;" edge="1" parent="1" source="Pvc_LrXksF8-Iq35pGag-369" target="Pvc_LrXksF8-Iq35pGag-370">
          <mxGeometry width="100" height="100" relative="1" as="geometry">
            <mxPoint x="690" y="500" as="sourcePoint" />
            <mxPoint x="790" y="400" as="targetPoint" />
            <Array as="points">
              <mxPoint x="730" y="400" />
            </Array>
          </mxGeometry>
        </mxCell>
        <mxCell id="Pvc_LrXksF8-Iq35pGag-376" value="" style="edgeStyle=elbowEdgeStyle;elbow=horizontal;rounded=0;fontColor=#000000;endArrow=none;endFill=0;strokeWidth=8;strokeColor=#23445D;" edge="1" parent="1" source="Pvc_LrXksF8-Iq35pGag-369" target="Pvc_LrXksF8-Iq35pGag-371">
          <mxGeometry width="100" height="100" relative="1" as="geometry">
            <mxPoint x="760" y="360" as="sourcePoint" />
            <mxPoint x="760" y="460" as="targetPoint" />
            <Array as="points">
              <mxPoint x="730" y="420" />
            </Array>
          </mxGeometry>
        </mxCell>
        <mxCell id="Pvc_LrXksF8-Iq35pGag-377" value="" style="edgeStyle=elbowEdgeStyle;elbow=horizontal;rounded=0;fontColor=#000000;endArrow=none;endFill=0;strokeWidth=8;strokeColor=#23445D;" edge="1" parent="1" source="Pvc_LrXksF8-Iq35pGag-369" target="Pvc_LrXksF8-Iq35pGag-374">
          <mxGeometry width="100" height="100" relative="1" as="geometry">
            <mxPoint x="760" y="360" as="sourcePoint" />
            <mxPoint x="760" y="460" as="targetPoint" />
            <Array as="points">
              <mxPoint x="730" y="560" />
            </Array>
          </mxGeometry>
        </mxCell>
        <mxCell id="Pvc_LrXksF8-Iq35pGag-378" value="" style="edgeStyle=elbowEdgeStyle;elbow=horizontal;rounded=0;fontColor=#000000;endArrow=none;endFill=0;strokeWidth=8;strokeColor=#23445D;" edge="1" parent="1" source="Pvc_LrXksF8-Iq35pGag-369" target="Pvc_LrXksF8-Iq35pGag-373">
          <mxGeometry width="100" height="100" relative="1" as="geometry">
            <mxPoint x="780" y="380" as="sourcePoint" />
            <mxPoint x="780" y="480" as="targetPoint" />
            <Array as="points">
              <mxPoint x="730" y="430" />
            </Array>
          </mxGeometry>
        </mxCell>
        <mxCell id="Pvc_LrXksF8-Iq35pGag-379" value="" style="edgeStyle=elbowEdgeStyle;elbow=horizontal;rounded=0;fontColor=#000000;endArrow=none;endFill=0;strokeWidth=8;strokeColor=#23445D;" edge="1" parent="1" source="Pvc_LrXksF8-Iq35pGag-369" target="Pvc_LrXksF8-Iq35pGag-372">
          <mxGeometry width="100" height="100" relative="1" as="geometry">
            <mxPoint x="790" y="390" as="sourcePoint" />
            <mxPoint x="790" y="490" as="targetPoint" />
            <Array as="points">
              <mxPoint x="730" y="450" />
            </Array>
          </mxGeometry>
        </mxCell>
        <mxCell id="Pvc_LrXksF8-Iq35pGag-380" value="SUB-TASK 1" style="whiteSpace=wrap;rounded=1;fillColor=#12AAB5;strokeColor=none;shadow=1;fontColor=#FFFFFF;" vertex="1" parent="1">
          <mxGeometry x="950" y="320.0000000000001" width="120" height="60" as="geometry" />
        </mxCell>
        <mxCell id="Pvc_LrXksF8-Iq35pGag-381" value="WORK&#xa;PACKAGE 1" style="whiteSpace=wrap;rounded=1;fillColor=#999999;strokeColor=none;shadow=1;fontColor=#FFFFFF;fontStyle=0" vertex="1" parent="1">
          <mxGeometry x="950" y="420.0000000000001" width="120" height="60" as="geometry" />
        </mxCell>
        <mxCell id="Pvc_LrXksF8-Iq35pGag-382" value="WORK&#xa;PACKAGE 2" style="whiteSpace=wrap;rounded=1;fillColor=#999999;strokeColor=none;shadow=1;fontColor=#FFFFFF;fontStyle=0" vertex="1" parent="1">
          <mxGeometry x="950.0000000000001" y="500.0000000000001" width="120" height="60" as="geometry" />
        </mxCell>
        <mxCell id="Pvc_LrXksF8-Iq35pGag-383" value="WORK&#xa;PACKAGE 3" style="whiteSpace=wrap;rounded=1;fillColor=#999999;strokeColor=none;shadow=1;fontColor=#FFFFFF;fontStyle=0" vertex="1" parent="1">
          <mxGeometry x="950" y="580.0000000000001" width="120" height="60" as="geometry" />
        </mxCell>
        <mxCell id="Pvc_LrXksF8-Iq35pGag-384" value="WORK&#xa;PACKAGE 4" style="whiteSpace=wrap;rounded=1;fillColor=#999999;strokeColor=none;shadow=1;fontColor=#FFFFFF;fontStyle=0" vertex="1" parent="1">
          <mxGeometry x="950.0000000000002" y="660.0000000000001" width="120" height="60" as="geometry" />
        </mxCell>
        <mxCell id="Pvc_LrXksF8-Iq35pGag-385" value="WORK&#xa;PACKAGE 5" style="whiteSpace=wrap;rounded=1;fillColor=#999999;strokeColor=none;shadow=1;fontColor=#FFFFFF;fontStyle=0" vertex="1" parent="1">
          <mxGeometry x="950.0000000000003" y="740.0000000000001" width="120" height="60" as="geometry" />
        </mxCell>
        <mxCell id="Pvc_LrXksF8-Iq35pGag-386" value="" style="edgeStyle=elbowEdgeStyle;elbow=horizontal;rounded=0;fontColor=#000000;endArrow=none;endFill=0;strokeWidth=8;strokeColor=#23445D;" edge="1" parent="1" source="Pvc_LrXksF8-Iq35pGag-380" target="Pvc_LrXksF8-Iq35pGag-381">
          <mxGeometry width="100" height="100" relative="1" as="geometry">
            <mxPoint x="890" y="500" as="sourcePoint" />
            <mxPoint x="990" y="400" as="targetPoint" />
            <Array as="points">
              <mxPoint x="930" y="400" />
            </Array>
          </mxGeometry>
        </mxCell>
        <mxCell id="Pvc_LrXksF8-Iq35pGag-387" value="" style="edgeStyle=elbowEdgeStyle;elbow=horizontal;rounded=0;fontColor=#000000;endArrow=none;endFill=0;strokeWidth=8;strokeColor=#23445D;" edge="1" parent="1" source="Pvc_LrXksF8-Iq35pGag-380" target="Pvc_LrXksF8-Iq35pGag-382">
          <mxGeometry width="100" height="100" relative="1" as="geometry">
            <mxPoint x="960" y="360" as="sourcePoint" />
            <mxPoint x="960" y="460" as="targetPoint" />
            <Array as="points">
              <mxPoint x="930" y="420" />
            </Array>
          </mxGeometry>
        </mxCell>
        <mxCell id="Pvc_LrXksF8-Iq35pGag-388" value="" style="edgeStyle=elbowEdgeStyle;elbow=horizontal;rounded=0;fontColor=#000000;endArrow=none;endFill=0;strokeWidth=8;strokeColor=#23445D;" edge="1" parent="1" source="Pvc_LrXksF8-Iq35pGag-380" target="Pvc_LrXksF8-Iq35pGag-385">
          <mxGeometry width="100" height="100" relative="1" as="geometry">
            <mxPoint x="960" y="360" as="sourcePoint" />
            <mxPoint x="960" y="460" as="targetPoint" />
            <Array as="points">
              <mxPoint x="930" y="560" />
            </Array>
          </mxGeometry>
        </mxCell>
        <mxCell id="Pvc_LrXksF8-Iq35pGag-389" value="" style="edgeStyle=elbowEdgeStyle;elbow=horizontal;rounded=0;fontColor=#000000;endArrow=none;endFill=0;strokeWidth=8;strokeColor=#23445D;" edge="1" parent="1" source="Pvc_LrXksF8-Iq35pGag-380" target="Pvc_LrXksF8-Iq35pGag-384">
          <mxGeometry width="100" height="100" relative="1" as="geometry">
            <mxPoint x="980" y="380" as="sourcePoint" />
            <mxPoint x="980" y="480" as="targetPoint" />
            <Array as="points">
              <mxPoint x="930" y="430" />
            </Array>
          </mxGeometry>
        </mxCell>
        <mxCell id="Pvc_LrXksF8-Iq35pGag-390" value="" style="edgeStyle=elbowEdgeStyle;elbow=horizontal;rounded=0;fontColor=#000000;endArrow=none;endFill=0;strokeWidth=8;strokeColor=#23445D;" edge="1" parent="1" source="Pvc_LrXksF8-Iq35pGag-380" target="Pvc_LrXksF8-Iq35pGag-383">
          <mxGeometry width="100" height="100" relative="1" as="geometry">
            <mxPoint x="990" y="390" as="sourcePoint" />
            <mxPoint x="990" y="490" as="targetPoint" />
            <Array as="points">
              <mxPoint x="930" y="450" />
            </Array>
          </mxGeometry>
        </mxCell>
        <mxCell id="Pvc_LrXksF8-Iq35pGag-391" value="SUB-TASK 1" style="whiteSpace=wrap;rounded=1;fillColor=#12AAB5;strokeColor=none;shadow=1;fontColor=#FFFFFF;" vertex="1" parent="1">
          <mxGeometry x="1160" y="320.0000000000001" width="120" height="60" as="geometry" />
        </mxCell>
        <mxCell id="Pvc_LrXksF8-Iq35pGag-392" value="WORK&#xa;PACKAGE 1" style="whiteSpace=wrap;rounded=1;fillColor=#999999;strokeColor=none;shadow=1;fontColor=#FFFFFF;fontStyle=0" vertex="1" parent="1">
          <mxGeometry x="1160" y="420.0000000000001" width="120" height="60" as="geometry" />
        </mxCell>
        <mxCell id="Pvc_LrXksF8-Iq35pGag-393" value="WORK&#xa;PACKAGE 2" style="whiteSpace=wrap;rounded=1;fillColor=#999999;strokeColor=none;shadow=1;fontColor=#FFFFFF;fontStyle=0" vertex="1" parent="1">
          <mxGeometry x="1160" y="500.0000000000001" width="120" height="60" as="geometry" />
        </mxCell>
        <mxCell id="Pvc_LrXksF8-Iq35pGag-394" value="WORK&#xa;PACKAGE 3" style="whiteSpace=wrap;rounded=1;fillColor=#999999;strokeColor=none;shadow=1;fontColor=#FFFFFF;fontStyle=0" vertex="1" parent="1">
          <mxGeometry x="1160" y="580.0000000000001" width="120" height="60" as="geometry" />
        </mxCell>
        <mxCell id="Pvc_LrXksF8-Iq35pGag-395" value="WORK&#xa;PACKAGE 4" style="whiteSpace=wrap;rounded=1;fillColor=#999999;strokeColor=none;shadow=1;fontColor=#FFFFFF;fontStyle=0" vertex="1" parent="1">
          <mxGeometry x="1160.0000000000002" y="660.0000000000001" width="120" height="60" as="geometry" />
        </mxCell>
        <mxCell id="Pvc_LrXksF8-Iq35pGag-396" value="WORK&#xa;PACKAGE 5" style="whiteSpace=wrap;rounded=1;fillColor=#999999;strokeColor=none;shadow=1;fontColor=#FFFFFF;fontStyle=0" vertex="1" parent="1">
          <mxGeometry x="1160.0000000000005" y="740.0000000000001" width="120" height="60" as="geometry" />
        </mxCell>
        <mxCell id="Pvc_LrXksF8-Iq35pGag-397" value="" style="edgeStyle=elbowEdgeStyle;elbow=horizontal;rounded=0;fontColor=#000000;endArrow=none;endFill=0;strokeWidth=8;strokeColor=#23445D;" edge="1" parent="1" source="Pvc_LrXksF8-Iq35pGag-391" target="Pvc_LrXksF8-Iq35pGag-392">
          <mxGeometry width="100" height="100" relative="1" as="geometry">
            <mxPoint x="1100" y="500" as="sourcePoint" />
            <mxPoint x="1200" y="400" as="targetPoint" />
            <Array as="points">
              <mxPoint x="1140" y="400" />
            </Array>
          </mxGeometry>
        </mxCell>
        <mxCell id="Pvc_LrXksF8-Iq35pGag-398" value="" style="edgeStyle=elbowEdgeStyle;elbow=horizontal;rounded=0;fontColor=#000000;endArrow=none;endFill=0;strokeWidth=8;strokeColor=#23445D;" edge="1" parent="1" source="Pvc_LrXksF8-Iq35pGag-391" target="Pvc_LrXksF8-Iq35pGag-393">
          <mxGeometry width="100" height="100" relative="1" as="geometry">
            <mxPoint x="1170" y="360" as="sourcePoint" />
            <mxPoint x="1170" y="460" as="targetPoint" />
            <Array as="points">
              <mxPoint x="1140" y="420" />
            </Array>
          </mxGeometry>
        </mxCell>
        <mxCell id="Pvc_LrXksF8-Iq35pGag-399" value="" style="edgeStyle=elbowEdgeStyle;elbow=horizontal;rounded=0;fontColor=#000000;endArrow=none;endFill=0;strokeWidth=8;strokeColor=#23445D;" edge="1" parent="1" source="Pvc_LrXksF8-Iq35pGag-391" target="Pvc_LrXksF8-Iq35pGag-396">
          <mxGeometry width="100" height="100" relative="1" as="geometry">
            <mxPoint x="1170" y="360" as="sourcePoint" />
            <mxPoint x="1170" y="460" as="targetPoint" />
            <Array as="points">
              <mxPoint x="1140" y="560" />
            </Array>
          </mxGeometry>
        </mxCell>
        <mxCell id="Pvc_LrXksF8-Iq35pGag-400" value="" style="edgeStyle=elbowEdgeStyle;elbow=horizontal;rounded=0;fontColor=#000000;endArrow=none;endFill=0;strokeWidth=8;strokeColor=#23445D;" edge="1" parent="1" source="Pvc_LrXksF8-Iq35pGag-391" target="Pvc_LrXksF8-Iq35pGag-395">
          <mxGeometry width="100" height="100" relative="1" as="geometry">
            <mxPoint x="1190" y="380" as="sourcePoint" />
            <mxPoint x="1190" y="480" as="targetPoint" />
            <Array as="points">
              <mxPoint x="1140" y="430" />
            </Array>
          </mxGeometry>
        </mxCell>
        <mxCell id="Pvc_LrXksF8-Iq35pGag-401" value="" style="edgeStyle=elbowEdgeStyle;elbow=horizontal;rounded=0;fontColor=#000000;endArrow=none;endFill=0;strokeWidth=8;strokeColor=#23445D;" edge="1" parent="1" source="Pvc_LrXksF8-Iq35pGag-391" target="Pvc_LrXksF8-Iq35pGag-394">
          <mxGeometry width="100" height="100" relative="1" as="geometry">
            <mxPoint x="1200" y="390" as="sourcePoint" />
            <mxPoint x="1200" y="490" as="targetPoint" />
            <Array as="points">
              <mxPoint x="1140" y="450" />
            </Array>
          </mxGeometry>
        </mxCell>
        <mxCell id="Pvc_LrXksF8-Iq35pGag-402" value="SUB-TASK 1" style="whiteSpace=wrap;rounded=1;fillColor=#12AAB5;strokeColor=none;shadow=1;fontColor=#FFFFFF;" vertex="1" parent="1">
          <mxGeometry x="1370" y="320.0000000000001" width="120" height="60" as="geometry" />
        </mxCell>
        <mxCell id="Pvc_LrXksF8-Iq35pGag-403" value="WORK&#xa;PACKAGE 1" style="whiteSpace=wrap;rounded=1;fillColor=#999999;strokeColor=none;shadow=1;fontColor=#FFFFFF;fontStyle=0" vertex="1" parent="1">
          <mxGeometry x="1370" y="420.0000000000001" width="120" height="60" as="geometry" />
        </mxCell>
        <mxCell id="Pvc_LrXksF8-Iq35pGag-404" value="WORK&#xa;PACKAGE 2" style="whiteSpace=wrap;rounded=1;fillColor=#999999;strokeColor=none;shadow=1;fontColor=#FFFFFF;fontStyle=0" vertex="1" parent="1">
          <mxGeometry x="1370" y="500.0000000000001" width="120" height="60" as="geometry" />
        </mxCell>
        <mxCell id="Pvc_LrXksF8-Iq35pGag-405" value="WORK&#xa;PACKAGE 3" style="whiteSpace=wrap;rounded=1;fillColor=#999999;strokeColor=none;shadow=1;fontColor=#FFFFFF;fontStyle=0" vertex="1" parent="1">
          <mxGeometry x="1370" y="580.0000000000001" width="120" height="60" as="geometry" />
        </mxCell>
        <mxCell id="Pvc_LrXksF8-Iq35pGag-406" value="WORK&#xa;PACKAGE 4" style="whiteSpace=wrap;rounded=1;fillColor=#999999;strokeColor=none;shadow=1;fontColor=#FFFFFF;fontStyle=0" vertex="1" parent="1">
          <mxGeometry x="1370.0000000000002" y="660.0000000000001" width="120" height="60" as="geometry" />
        </mxCell>
        <mxCell id="Pvc_LrXksF8-Iq35pGag-407" value="WORK&#xa;PACKAGE 5" style="whiteSpace=wrap;rounded=1;fillColor=#999999;strokeColor=none;shadow=1;fontColor=#FFFFFF;fontStyle=0" vertex="1" parent="1">
          <mxGeometry x="1370.0000000000005" y="740.0000000000001" width="120" height="60" as="geometry" />
        </mxCell>
        <mxCell id="Pvc_LrXksF8-Iq35pGag-408" value="" style="edgeStyle=elbowEdgeStyle;elbow=horizontal;rounded=0;fontColor=#000000;endArrow=none;endFill=0;strokeWidth=8;strokeColor=#23445D;" edge="1" parent="1" source="Pvc_LrXksF8-Iq35pGag-402" target="Pvc_LrXksF8-Iq35pGag-403">
          <mxGeometry width="100" height="100" relative="1" as="geometry">
            <mxPoint x="1310" y="500" as="sourcePoint" />
            <mxPoint x="1410" y="400" as="targetPoint" />
            <Array as="points">
              <mxPoint x="1350" y="400" />
            </Array>
          </mxGeometry>
        </mxCell>
        <mxCell id="Pvc_LrXksF8-Iq35pGag-409" value="" style="edgeStyle=elbowEdgeStyle;elbow=horizontal;rounded=0;fontColor=#000000;endArrow=none;endFill=0;strokeWidth=8;strokeColor=#23445D;" edge="1" parent="1" source="Pvc_LrXksF8-Iq35pGag-402" target="Pvc_LrXksF8-Iq35pGag-404">
          <mxGeometry width="100" height="100" relative="1" as="geometry">
            <mxPoint x="1380" y="360" as="sourcePoint" />
            <mxPoint x="1380" y="460" as="targetPoint" />
            <Array as="points">
              <mxPoint x="1350" y="420" />
            </Array>
          </mxGeometry>
        </mxCell>
        <mxCell id="Pvc_LrXksF8-Iq35pGag-410" value="" style="edgeStyle=elbowEdgeStyle;elbow=horizontal;rounded=0;fontColor=#000000;endArrow=none;endFill=0;strokeWidth=8;strokeColor=#23445D;" edge="1" parent="1" source="Pvc_LrXksF8-Iq35pGag-402" target="Pvc_LrXksF8-Iq35pGag-407">
          <mxGeometry width="100" height="100" relative="1" as="geometry">
            <mxPoint x="1380" y="360" as="sourcePoint" />
            <mxPoint x="1380" y="460" as="targetPoint" />
            <Array as="points">
              <mxPoint x="1350" y="560" />
            </Array>
          </mxGeometry>
        </mxCell>
        <mxCell id="Pvc_LrXksF8-Iq35pGag-411" value="" style="edgeStyle=elbowEdgeStyle;elbow=horizontal;rounded=0;fontColor=#000000;endArrow=none;endFill=0;strokeWidth=8;strokeColor=#23445D;" edge="1" parent="1" source="Pvc_LrXksF8-Iq35pGag-402" target="Pvc_LrXksF8-Iq35pGag-406">
          <mxGeometry width="100" height="100" relative="1" as="geometry">
            <mxPoint x="1400" y="380" as="sourcePoint" />
            <mxPoint x="1400" y="480" as="targetPoint" />
            <Array as="points">
              <mxPoint x="1350" y="430" />
            </Array>
          </mxGeometry>
        </mxCell>
        <mxCell id="Pvc_LrXksF8-Iq35pGag-412" value="" style="edgeStyle=elbowEdgeStyle;elbow=horizontal;rounded=0;fontColor=#000000;endArrow=none;endFill=0;strokeWidth=8;strokeColor=#23445D;" edge="1" parent="1" source="Pvc_LrXksF8-Iq35pGag-402" target="Pvc_LrXksF8-Iq35pGag-405">
          <mxGeometry width="100" height="100" relative="1" as="geometry">
            <mxPoint x="1410" y="390" as="sourcePoint" />
            <mxPoint x="1410" y="490" as="targetPoint" />
            <Array as="points">
              <mxPoint x="1350" y="450" />
            </Array>
          </mxGeometry>
        </mxCell>
        <mxCell id="Pvc_LrXksF8-Iq35pGag-413" value="" style="shape=link;html=1;rounded=0;" edge="1" parent="1">
          <mxGeometry width="100" relative="1" as="geometry">
            <mxPoint x="570" y="460" as="sourcePoint" />
            <mxPoint x="670" y="460" as="targetPoint" />
          </mxGeometry>
        </mxCell>
        <mxCell id="Pvc_LrXksF8-Iq35pGag-415" value="" style="edgeStyle=elbowEdgeStyle;elbow=vertical;rounded=0;fontColor=#000000;endArrow=none;endFill=0;strokeWidth=8;strokeColor=#23445D;" edge="1" parent="1">
          <mxGeometry width="100" height="100" relative="1" as="geometry">
            <mxPoint x="809" y="270" as="sourcePoint" />
            <mxPoint x="809" y="320" as="targetPoint" />
            <Array as="points">
              <mxPoint x="809" y="270" />
            </Array>
          </mxGeometry>
        </mxCell>
        <mxCell id="Pvc_LrXksF8-Iq35pGag-419" value="" style="endArrow=none;html=1;rounded=0;strokeWidth=8;" edge="1" parent="1">
          <mxGeometry width="50" height="50" relative="1" as="geometry">
            <mxPoint x="1000" y="270" as="sourcePoint" />
            <mxPoint x="1000" y="320" as="targetPoint" />
          </mxGeometry>
        </mxCell>
        <mxCell id="Pvc_LrXksF8-Iq35pGag-420" value="" style="endArrow=none;html=1;rounded=0;strokeWidth=8;" edge="1" parent="1">
          <mxGeometry width="50" height="50" relative="1" as="geometry">
            <mxPoint x="1210" y="270" as="sourcePoint" />
            <mxPoint x="1210" y="320" as="targetPoint" />
          </mxGeometry>
        </mxCell>
        <mxCell id="Pvc_LrXksF8-Iq35pGag-421" value="" style="endArrow=none;html=1;rounded=0;strokeWidth=8;" edge="1" parent="1">
          <mxGeometry width="50" height="50" relative="1" as="geometry">
            <mxPoint x="1429" y="270" as="sourcePoint" />
            <mxPoint x="1429" y="320" as="targetPoint" />
          </mxGeometry>
        </mxCell>
        <mxCell id="Pvc_LrXksF8-Iq35pGag-424" value="" style="endArrow=none;html=1;rounded=0;strokeWidth=8;" edge="1" parent="1">
          <mxGeometry width="50" height="50" relative="1" as="geometry">
            <mxPoint x="1020" y="270" as="sourcePoint" />
            <mxPoint x="1430" y="270" as="targetPoint" />
          </mxGeometry>
        </mxCell>
        <mxCell id="Pvc_LrXksF8-Iq35pGag-426" value="SUB-TASK 1" style="whiteSpace=wrap;rounded=1;fillColor=#12AAB5;strokeColor=none;shadow=1;fontColor=#FFFFFF;" vertex="1" parent="1">
          <mxGeometry x="-770" y="300.0000000000001" width="120" height="60" as="geometry" />
        </mxCell>
        <mxCell id="Pvc_LrXksF8-Iq35pGag-427" value="WORK&#xa;PACKAGE 1" style="whiteSpace=wrap;rounded=1;fillColor=#999999;strokeColor=none;shadow=1;fontColor=#FFFFFF;fontStyle=0" vertex="1" parent="1">
          <mxGeometry x="-770" y="400.0000000000001" width="120" height="60" as="geometry" />
        </mxCell>
        <mxCell id="Pvc_LrXksF8-Iq35pGag-428" value="WORK&#xa;PACKAGE 2" style="whiteSpace=wrap;rounded=1;fillColor=#999999;strokeColor=none;shadow=1;fontColor=#FFFFFF;fontStyle=0" vertex="1" parent="1">
          <mxGeometry x="-769.9999999999999" y="480.0000000000001" width="120" height="60" as="geometry" />
        </mxCell>
        <mxCell id="Pvc_LrXksF8-Iq35pGag-429" value="WORK&#xa;PACKAGE 3" style="whiteSpace=wrap;rounded=1;fillColor=#999999;strokeColor=none;shadow=1;fontColor=#FFFFFF;fontStyle=0" vertex="1" parent="1">
          <mxGeometry x="-770" y="560.0000000000001" width="120" height="60" as="geometry" />
        </mxCell>
        <mxCell id="Pvc_LrXksF8-Iq35pGag-430" value="WORK&#xa;PACKAGE 4" style="whiteSpace=wrap;rounded=1;fillColor=#999999;strokeColor=none;shadow=1;fontColor=#FFFFFF;fontStyle=0" vertex="1" parent="1">
          <mxGeometry x="-769.9999999999998" y="640.0000000000001" width="120" height="60" as="geometry" />
        </mxCell>
        <mxCell id="Pvc_LrXksF8-Iq35pGag-431" value="WORK&#xa;PACKAGE 5" style="whiteSpace=wrap;rounded=1;fillColor=#999999;strokeColor=none;shadow=1;fontColor=#FFFFFF;fontStyle=0" vertex="1" parent="1">
          <mxGeometry x="-769.9999999999997" y="720.0000000000001" width="120" height="60" as="geometry" />
        </mxCell>
        <mxCell id="Pvc_LrXksF8-Iq35pGag-432" value="" style="edgeStyle=elbowEdgeStyle;elbow=horizontal;rounded=0;fontColor=#000000;endArrow=none;endFill=0;strokeWidth=8;strokeColor=#23445D;" edge="1" parent="1" source="Pvc_LrXksF8-Iq35pGag-426" target="Pvc_LrXksF8-Iq35pGag-427">
          <mxGeometry width="100" height="100" relative="1" as="geometry">
            <mxPoint x="-830" y="480" as="sourcePoint" />
            <mxPoint x="-730" y="380" as="targetPoint" />
            <Array as="points">
              <mxPoint x="-790" y="380" />
            </Array>
          </mxGeometry>
        </mxCell>
        <mxCell id="Pvc_LrXksF8-Iq35pGag-433" value="" style="edgeStyle=elbowEdgeStyle;elbow=horizontal;rounded=0;fontColor=#000000;endArrow=none;endFill=0;strokeWidth=8;strokeColor=#23445D;" edge="1" parent="1" source="Pvc_LrXksF8-Iq35pGag-426" target="Pvc_LrXksF8-Iq35pGag-428">
          <mxGeometry width="100" height="100" relative="1" as="geometry">
            <mxPoint x="-760" y="340" as="sourcePoint" />
            <mxPoint x="-760" y="440" as="targetPoint" />
            <Array as="points">
              <mxPoint x="-790" y="400" />
            </Array>
          </mxGeometry>
        </mxCell>
        <mxCell id="Pvc_LrXksF8-Iq35pGag-434" value="" style="edgeStyle=elbowEdgeStyle;elbow=horizontal;rounded=0;fontColor=#000000;endArrow=none;endFill=0;strokeWidth=8;strokeColor=#23445D;" edge="1" parent="1" source="Pvc_LrXksF8-Iq35pGag-426" target="Pvc_LrXksF8-Iq35pGag-431">
          <mxGeometry width="100" height="100" relative="1" as="geometry">
            <mxPoint x="-760" y="340" as="sourcePoint" />
            <mxPoint x="-760" y="440" as="targetPoint" />
            <Array as="points">
              <mxPoint x="-790" y="540" />
            </Array>
          </mxGeometry>
        </mxCell>
        <mxCell id="Pvc_LrXksF8-Iq35pGag-435" value="" style="edgeStyle=elbowEdgeStyle;elbow=horizontal;rounded=0;fontColor=#000000;endArrow=none;endFill=0;strokeWidth=8;strokeColor=#23445D;" edge="1" parent="1" source="Pvc_LrXksF8-Iq35pGag-426" target="Pvc_LrXksF8-Iq35pGag-430">
          <mxGeometry width="100" height="100" relative="1" as="geometry">
            <mxPoint x="-740" y="360" as="sourcePoint" />
            <mxPoint x="-740" y="460" as="targetPoint" />
            <Array as="points">
              <mxPoint x="-790" y="410" />
            </Array>
          </mxGeometry>
        </mxCell>
        <mxCell id="Pvc_LrXksF8-Iq35pGag-436" value="" style="edgeStyle=elbowEdgeStyle;elbow=horizontal;rounded=0;fontColor=#000000;endArrow=none;endFill=0;strokeWidth=8;strokeColor=#23445D;" edge="1" parent="1" source="Pvc_LrXksF8-Iq35pGag-426" target="Pvc_LrXksF8-Iq35pGag-429">
          <mxGeometry width="100" height="100" relative="1" as="geometry">
            <mxPoint x="-730" y="370" as="sourcePoint" />
            <mxPoint x="-730" y="470" as="targetPoint" />
            <Array as="points">
              <mxPoint x="-790" y="430" />
            </Array>
          </mxGeometry>
        </mxCell>
        <mxCell id="Pvc_LrXksF8-Iq35pGag-438" value="" style="edgeStyle=elbowEdgeStyle;elbow=vertical;rounded=0;fontColor=#000000;endArrow=none;endFill=0;strokeWidth=8;strokeColor=#23445D;entryX=0.5;entryY=0;entryDx=0;entryDy=0;" edge="1" parent="1" target="Pvc_LrXksF8-Iq35pGag-358">
          <mxGeometry width="100" height="100" relative="1" as="geometry">
            <mxPoint x="-100" y="240" as="sourcePoint" />
            <mxPoint x="-470" y="310.0000000000001" as="targetPoint" />
            <Array as="points">
              <mxPoint x="90" y="260" />
            </Array>
          </mxGeometry>
        </mxCell>
        <mxCell id="Pvc_LrXksF8-Iq35pGag-439" value="" style="edgeStyle=elbowEdgeStyle;elbow=vertical;rounded=0;fontColor=#000000;endArrow=none;endFill=0;strokeWidth=8;strokeColor=#23445D;" edge="1" parent="1">
          <mxGeometry width="100" height="100" relative="1" as="geometry">
            <mxPoint x="-480" y="265" as="sourcePoint" />
            <mxPoint x="-710" y="300.0000000000001" as="targetPoint" />
            <Array as="points">
              <mxPoint x="-590" y="265" />
            </Array>
          </mxGeometry>
        </mxCell>
        <mxCell id="Pvc_LrXksF8-Iq35pGag-440" value="" style="edgeStyle=elbowEdgeStyle;elbow=vertical;rounded=0;fontColor=#000000;endArrow=none;endFill=0;strokeWidth=8;strokeColor=#23445D;entryX=0.5;entryY=0;entryDx=0;entryDy=0;" edge="1" parent="1" target="Pvc_LrXksF8-Iq35pGag-325">
          <mxGeometry width="100" height="100" relative="1" as="geometry">
            <mxPoint x="-290.8299999999999" y="260" as="sourcePoint" />
            <mxPoint x="-291" y="290" as="targetPoint" />
            <Array as="points">
              <mxPoint x="-290.8299999999999" y="260" />
            </Array>
          </mxGeometry>
        </mxCell>
        <mxCell id="Pvc_LrXksF8-Iq35pGag-441" value="" style="endArrow=none;html=1;rounded=0;strokeWidth=8;" edge="1" parent="1">
          <mxGeometry width="50" height="50" relative="1" as="geometry">
            <mxPoint x="-100" y="300" as="sourcePoint" />
            <mxPoint x="-100" y="260" as="targetPoint" />
          </mxGeometry>
        </mxCell>
        <mxCell id="Pvc_LrXksF8-Iq35pGag-444" value="" style="endArrow=none;html=1;rounded=0;strokeWidth=8;" edge="1" parent="1">
          <mxGeometry width="50" height="50" relative="1" as="geometry">
            <mxPoint x="89.16999999999999" y="300" as="sourcePoint" />
            <mxPoint x="89.16999999999999" y="260" as="targetPoint" />
          </mxGeometry>
        </mxCell>
      </root>
    </mxGraphModel>
  </diagram>
</mxfile>
